<svg xmlns="http://www.w3.org/2000/svg" class="pikchr" viewBox="0 0 800 84.24">
    <defs>
        <style type="text/css">
            text { font-family: -apple-system, BlinkMacSystemFont, Segoe UI, Helvetica, Arial, sans-serif, Apple Color Emoji, Segoe UI Emoji; }
        </style>
    </defs>
    <circle cx="5" cy="17" r="3.6" style="fill:none;stroke-width:2.16;stroke:rgb(0,0,0);"></circle>
    <polygon points="32,17 20,21 20,12" style="fill:rgb(0,0,0)"></polygon>
    <path d="M9,17L26,17" style="fill:none;stroke-width:2.16;stroke:rgb(0,0,0);"></path>
    <path d="M32,32L193,32L193,2L32,2Z" style="fill:none;stroke-width:2.16;stroke:rgb(0,0,0);"></path>
    <text x="112" y="17" text-anchor="middle" fill="rgb(0,0,0)" dominant-baseline="central">table-or-subquery</text>
    <polygon points="259,47 247,51 247,43" style="fill:rgb(0,0,0)"></polygon>
    <path d="M193,17 L 200,17 Q 208,17 208,32 L 208,32 Q 208,47 223,47 L 238,47 L 253,47" style="fill:none;stroke-width:2.16;stroke:rgb(0,0,0);"></path>
    <path d="M259,62L380,62L380,32L259,32Z" style="fill:none;stroke-width:2.16;stroke:rgb(0,0,0);"></path>
    <text x="319" y="47" text-anchor="middle" fill="rgb(0,0,0)" dominant-baseline="central">join-operator</text>
    <polygon points="403,47 391,51 391,43" style="fill:rgb(0,0,0)"></polygon>
    <path d="M380,47L397,47" style="fill:none;stroke-width:2.16;stroke:rgb(0,0,0);"></path>
    <path d="M403,62L564,62L564,32L403,32Z" style="fill:none;stroke-width:2.16;stroke:rgb(0,0,0);"></path>
    <text x="483" y="47" text-anchor="middle" fill="rgb(0,0,0)" dominant-baseline="central">table-or-subquery</text>
    <polygon points="587,47 575,51 575,43" style="fill:rgb(0,0,0)"></polygon>
    <path d="M564,47L581,47" style="fill:none;stroke-width:2.16;stroke:rgb(0,0,0);"></path>
    <path d="M587,62L721,62L721,32L587,32Z" style="fill:none;stroke-width:2.16;stroke:rgb(0,0,0);"></path>
    <text x="654" y="47" text-anchor="middle" fill="rgb(0,0,0)" dominant-baseline="central">join-constraint</text>
    <polygon points="783,17 772,21 772,12" style="fill:rgb(0,0,0)"></polygon>
    <path d="M721,47 L 742,47 Q 757,47 757,32 L 757,32 Q 757,17 767,17 L 778,17" style="fill:none;stroke-width:2.16;stroke:rgb(0,0,0);"></path>
    <circle cx="787" cy="17" r="3.6" style="fill:none;stroke-width:2.16;stroke:rgb(0,0,0);"></circle>
    <polygon points="483,17 472,21 472,12" style="fill:rgb(0,0,0)"></polygon>
    <path d="M193,17L478,17" style="fill:none;stroke-width:2.16;stroke:rgb(0,0,0);"></path>
    <path d="M483,17L776,17" style="fill:none;stroke-width:2.16;stroke:rgb(0,0,0);"></path>
    <polygon points="483,77 495,73 495,82" style="fill:rgb(0,0,0)"></polygon>
    <path d="M721,47 L 728,47 Q 736,47 736,62 L 736,62 Q 736,77 721,77 L 504,77 L 489,77" style="fill:none;stroke-width:2.16;stroke:rgb(0,0,0);"></path>
    <path d="M483,77 L 247,77 Q 232,77 232,62 L 232,62 Q 232,47 246,47 L 259,47" style="fill:none;stroke-width:2.16;stroke:rgb(0,0,0);"></path>
</svg>
